<svg width="1920" height="9453" viewBox="0 0 1920 9453" fill="none" xmlns="http://www.w3.org/2000/svg">
<g filter="url(#filter0_f_385_791)">
<path d="M397.265 2367.79C313.426 2248.83 519.399 2108.15 732.62 2248.83C945.841 2389.51 888.912 2716.38 732.62 2648.11C576.328 2579.84 521.471 2816.72 291.69 2648.11C61.9103 2479.5 481.104 2486.74 397.265 2367.79Z" fill="#3D065F"/>
</g>
<g filter="url(#filter1_f_385_791)">
<path d="M1519.27 -80.2123C1435.43 -199.169 1641.4 -339.849 1854.62 -199.169C2067.84 -58.4897 2010.91 268.383 1854.62 200.112C1698.33 131.841 1643.47 368.721 1413.69 200.112C1183.91 31.5038 1603.1 38.7447 1519.27 -80.2123Z" fill="#3D065F"/>
</g>
<g filter="url(#filter2_f_385_791)">
<path d="M-17.7349 -50.2123C-101.574 -169.169 104.399 -309.849 317.62 -169.169C530.841 -28.4897 473.912 298.383 317.62 230.112C161.328 161.841 106.471 398.721 -123.31 230.112C-353.09 61.5038 66.1039 68.7447 -17.7349 -50.2123Z" fill="#3D065F"/>
</g>
<g filter="url(#filter3_f_385_791)">
<path d="M1241.27 452.788C1157.43 333.831 1363.4 193.151 1576.62 333.831C1789.84 474.51 1732.91 801.383 1576.62 733.112C1420.33 664.841 1365.47 901.721 1135.69 733.112C905.91 564.504 1325.1 571.745 1241.27 452.788Z" fill="#3D065F"/>
</g>
<g style="mix-blend-mode:color-dodge" filter="url(#filter4_f_385_791)">
<circle cx="1744" cy="108" r="228" fill="#00CBFF"/>
</g>
<g filter="url(#filter5_f_385_791)">
<circle cx="391" cy="684" r="228" fill="#6721FF"/>
</g>
<g filter="url(#filter6_f_385_791)">
<path d="M674.265 795.788C590.426 676.831 796.399 536.151 1009.62 676.831C1222.84 817.51 1165.91 1144.38 1009.62 1076.11C853.328 1007.84 798.471 1244.72 568.69 1076.11C338.91 907.504 758.104 914.745 674.265 795.788Z" fill="#3D065F"/>
</g>
<g filter="url(#filter7_f_385_791)">
<path d="M1321.27 1089.79C1237.43 970.831 1443.4 830.151 1656.62 970.831C1869.84 1111.51 1812.91 1438.38 1656.62 1370.11C1500.33 1301.84 1445.47 1538.72 1215.69 1370.11C985.91 1201.5 1405.1 1208.74 1321.27 1089.79Z" fill="#3D065F"/>
</g>
<g filter="url(#filter8_f_385_791)">
<path d="M72.2651 1212.79C-11.5736 1093.83 194.399 953.151 407.62 1093.83C620.841 1234.51 563.912 1561.38 407.62 1493.11C251.328 1424.84 196.471 1661.72 -33.3095 1493.11C-263.09 1324.5 156.104 1331.74 72.2651 1212.79Z" fill="#3D065F"/>
</g>
<g filter="url(#filter9_f_385_791)">
<path d="M1313.27 2849.79C1229.43 2730.83 1435.4 2590.15 1648.62 2730.83C1861.84 2871.51 1804.91 3198.38 1648.62 3130.11C1492.33 3061.84 1437.47 3298.72 1207.69 3130.11C977.91 2961.5 1397.1 2968.74 1313.27 2849.79Z" fill="#3D065F"/>
</g>
<g filter="url(#filter10_f_385_791)">
<path d="M449.265 3316.79C365.426 3197.83 571.399 3057.15 784.62 3197.83C997.841 3338.51 940.912 3665.38 784.62 3597.11C628.328 3528.84 573.471 3765.72 343.69 3597.11C113.91 3428.5 533.104 3435.74 449.265 3316.79Z" fill="#3D065F"/>
</g>
<g filter="url(#filter11_f_385_791)">
<path d="M823.265 4135.79C739.426 4016.83 945.399 3876.15 1158.62 4016.83C1371.84 4157.51 1314.91 4484.38 1158.62 4416.11C1002.33 4347.84 947.471 4584.72 717.69 4416.11C487.91 4247.5 907.104 4254.74 823.265 4135.79Z" fill="#3D065F"/>
</g>
<g filter="url(#filter12_f_385_791)">
<path d="M1136.41 4923.55C1031.93 4775.31 1288.61 4600 1554.31 4775.31C1820.02 4950.62 1749.07 5357.95 1554.31 5272.88C1359.55 5187.8 1291.19 5482.99 1004.85 5272.88C718.504 5062.77 1240.88 5071.79 1136.41 4923.55Z" fill="#3D065F"/>
</g>
<g filter="url(#filter13_f_385_791)">
<path d="M333.265 4888.79C249.426 4769.83 455.399 4629.15 668.62 4769.83C881.841 4910.51 824.912 5237.38 668.62 5169.11C512.328 5100.84 457.471 5337.72 227.69 5169.11C-2.08969 5000.5 417.104 5007.74 333.265 4888.79Z" fill="#3D065F"/>
</g>
<g filter="url(#filter14_f_385_791)">
<path d="M857.265 5607.79C773.426 5488.83 979.399 5348.15 1192.62 5488.83C1405.84 5629.51 1348.91 5956.38 1192.62 5888.11C1036.33 5819.84 981.471 6056.72 751.69 5888.11C521.91 5719.5 941.104 5726.74 857.265 5607.79Z" fill="#3D065F"/>
</g>
<g filter="url(#filter15_f_385_791)">
<path d="M355.265 6135.79C271.426 6016.83 477.399 5876.15 690.62 6016.83C903.841 6157.51 846.912 6484.38 690.62 6416.11C534.328 6347.84 479.471 6584.72 249.69 6416.11C19.9103 6247.5 439.104 6254.74 355.265 6135.79Z" fill="#3D065F"/>
</g>
<g filter="url(#filter16_f_385_791)">
<path d="M765.265 6938.79C681.426 6819.83 887.399 6679.15 1100.62 6819.83C1313.84 6960.51 1256.91 7287.38 1100.62 7219.11C944.328 7150.84 889.471 7387.72 659.69 7219.11C429.91 7050.5 849.104 7057.74 765.265 6938.79Z" fill="#3D065F"/>
</g>
<g filter="url(#filter17_f_385_791)">
<path d="M1227.27 7522.79C1143.43 7403.83 1349.4 7263.15 1562.62 7403.83C1775.84 7544.51 1718.91 7871.38 1562.62 7803.11C1406.33 7734.84 1351.47 7971.72 1121.69 7803.11C891.91 7634.5 1311.1 7641.74 1227.27 7522.79Z" fill="#3D065F"/>
</g>
<g filter="url(#filter18_f_385_791)">
<path d="M290.265 7759.79C206.426 7640.83 412.399 7500.15 625.62 7640.83C838.841 7781.51 781.912 8108.38 625.62 8040.11C469.328 7971.84 414.471 8208.72 184.69 8040.11C-45.0897 7871.5 374.104 7878.74 290.265 7759.79Z" fill="#3D065F"/>
</g>
<g filter="url(#filter19_f_385_791)">
<path d="M840.265 8538.79C756.426 8419.83 962.399 8279.15 1175.62 8419.83C1388.84 8560.51 1331.91 8887.38 1175.62 8819.11C1019.33 8750.84 964.471 8987.72 734.69 8819.11C504.91 8650.5 924.104 8657.74 840.265 8538.79Z" fill="#3D065F"/>
</g>
<g filter="url(#filter20_f_385_791)">
<path d="M1664.27 8919.79C1580.43 8800.83 1786.4 8660.15 1999.62 8800.83C2212.84 8941.51 2155.91 9268.38 1999.62 9200.11C1843.33 9131.84 1788.47 9368.72 1558.69 9200.11C1328.91 9031.5 1748.1 9038.74 1664.27 8919.79Z" fill="#3D065F"/>
</g>
<g style="mix-blend-mode:color-dodge" filter="url(#filter21_f_385_791)">
<circle cx="1056" cy="2038" r="228" fill="#00CBFF"/>
</g>
<g filter="url(#filter22_f_385_791)">
<path d="M1082.27 1736.79C998.426 1617.83 1204.4 1477.15 1417.62 1617.83C1630.84 1758.51 1573.91 2085.38 1417.62 2017.11C1261.33 1948.84 1206.47 2185.72 976.69 2017.11C746.91 1848.5 1166.1 1855.74 1082.27 1736.79Z" fill="#3D065F"/>
</g>
<g filter="url(#filter23_f_385_791)">
<path d="M1445.27 6297.79C1361.43 6178.83 1567.4 6038.15 1780.62 6178.83C1993.84 6319.51 1936.91 6646.38 1780.62 6578.11C1624.33 6509.84 1569.47 6746.72 1339.69 6578.11C1109.91 6409.5 1529.1 6416.74 1445.27 6297.79Z" fill="#3D065F"/>
</g>
<defs>
<filter id="filter0_f_385_791" x="-278" y="1690" width="1650" height="1520" filterUnits="userSpaceOnUse" color-interpolation-filters="sRGB">
<feFlood flood-opacity="0" result="BackgroundImageFix"/>
<feBlend mode="normal" in="SourceGraphic" in2="BackgroundImageFix" result="shape"/>
<feGaussianBlur stdDeviation="250" result="effect1_foregroundBlur_385_791"/>
</filter>
<filter id="filter1_f_385_791" x="844" y="-758" width="1650" height="1520" filterUnits="userSpaceOnUse" color-interpolation-filters="sRGB">
<feFlood flood-opacity="0" result="BackgroundImageFix"/>
<feBlend mode="normal" in="SourceGraphic" in2="BackgroundImageFix" result="shape"/>
<feGaussianBlur stdDeviation="250" result="effect1_foregroundBlur_385_791"/>
</filter>
<filter id="filter2_f_385_791" x="-683" y="-718" width="1630" height="1500" filterUnits="userSpaceOnUse" color-interpolation-filters="sRGB">
<feFlood flood-opacity="0" result="BackgroundImageFix"/>
<feBlend mode="normal" in="SourceGraphic" in2="BackgroundImageFix" result="shape"/>
<feGaussianBlur stdDeviation="245" result="effect1_foregroundBlur_385_791"/>
</filter>
<filter id="filter3_f_385_791" x="766" y="-25" width="1250" height="1120" filterUnits="userSpaceOnUse" color-interpolation-filters="sRGB">
<feFlood flood-opacity="0" result="BackgroundImageFix"/>
<feBlend mode="normal" in="SourceGraphic" in2="BackgroundImageFix" result="shape"/>
<feGaussianBlur stdDeviation="150" result="effect1_foregroundBlur_385_791"/>
</filter>
<filter id="filter4_f_385_791" x="516" y="-1120" width="2456" height="2456" filterUnits="userSpaceOnUse" color-interpolation-filters="sRGB">
<feFlood flood-opacity="0" result="BackgroundImageFix"/>
<feBlend mode="normal" in="SourceGraphic" in2="BackgroundImageFix" result="shape"/>
<feGaussianBlur stdDeviation="500" result="effect1_foregroundBlur_385_791"/>
</filter>
<filter id="filter5_f_385_791" x="-837" y="-544" width="2456" height="2456" filterUnits="userSpaceOnUse" color-interpolation-filters="sRGB">
<feFlood flood-opacity="0" result="BackgroundImageFix"/>
<feBlend mode="normal" in="SourceGraphic" in2="BackgroundImageFix" result="shape"/>
<feGaussianBlur stdDeviation="500" result="effect1_foregroundBlur_385_791"/>
</filter>
<filter id="filter6_f_385_791" x="-1" y="118" width="1650" height="1520" filterUnits="userSpaceOnUse" color-interpolation-filters="sRGB">
<feFlood flood-opacity="0" result="BackgroundImageFix"/>
<feBlend mode="normal" in="SourceGraphic" in2="BackgroundImageFix" result="shape"/>
<feGaussianBlur stdDeviation="250" result="effect1_foregroundBlur_385_791"/>
</filter>
<filter id="filter7_f_385_791" x="646" y="412" width="1650" height="1520" filterUnits="userSpaceOnUse" color-interpolation-filters="sRGB">
<feFlood flood-opacity="0" result="BackgroundImageFix"/>
<feBlend mode="normal" in="SourceGraphic" in2="BackgroundImageFix" result="shape"/>
<feGaussianBlur stdDeviation="250" result="effect1_foregroundBlur_385_791"/>
</filter>
<filter id="filter8_f_385_791" x="-603" y="535" width="1650" height="1520" filterUnits="userSpaceOnUse" color-interpolation-filters="sRGB">
<feFlood flood-opacity="0" result="BackgroundImageFix"/>
<feBlend mode="normal" in="SourceGraphic" in2="BackgroundImageFix" result="shape"/>
<feGaussianBlur stdDeviation="250" result="effect1_foregroundBlur_385_791"/>
</filter>
<filter id="filter9_f_385_791" x="638" y="2172" width="1650" height="1520" filterUnits="userSpaceOnUse" color-interpolation-filters="sRGB">
<feFlood flood-opacity="0" result="BackgroundImageFix"/>
<feBlend mode="normal" in="SourceGraphic" in2="BackgroundImageFix" result="shape"/>
<feGaussianBlur stdDeviation="250" result="effect1_foregroundBlur_385_791"/>
</filter>
<filter id="filter10_f_385_791" x="-226" y="2639" width="1650" height="1520" filterUnits="userSpaceOnUse" color-interpolation-filters="sRGB">
<feFlood flood-opacity="0" result="BackgroundImageFix"/>
<feBlend mode="normal" in="SourceGraphic" in2="BackgroundImageFix" result="shape"/>
<feGaussianBlur stdDeviation="250" result="effect1_foregroundBlur_385_791"/>
</filter>
<filter id="filter11_f_385_791" x="148" y="3458" width="1650" height="1520" filterUnits="userSpaceOnUse" color-interpolation-filters="sRGB">
<feFlood flood-opacity="0" result="BackgroundImageFix"/>
<feBlend mode="normal" in="SourceGraphic" in2="BackgroundImageFix" result="shape"/>
<feGaussianBlur stdDeviation="250" result="effect1_foregroundBlur_385_791"/>
</filter>
<filter id="filter12_f_385_791" x="418" y="4202" width="1810" height="1648" filterUnits="userSpaceOnUse" color-interpolation-filters="sRGB">
<feFlood flood-opacity="0" result="BackgroundImageFix"/>
<feBlend mode="normal" in="SourceGraphic" in2="BackgroundImageFix" result="shape"/>
<feGaussianBlur stdDeviation="250" result="effect1_foregroundBlur_385_791"/>
</filter>
<filter id="filter13_f_385_791" x="-342" y="4211" width="1650" height="1520" filterUnits="userSpaceOnUse" color-interpolation-filters="sRGB">
<feFlood flood-opacity="0" result="BackgroundImageFix"/>
<feBlend mode="normal" in="SourceGraphic" in2="BackgroundImageFix" result="shape"/>
<feGaussianBlur stdDeviation="250" result="effect1_foregroundBlur_385_791"/>
</filter>
<filter id="filter14_f_385_791" x="182" y="4930" width="1650" height="1520" filterUnits="userSpaceOnUse" color-interpolation-filters="sRGB">
<feFlood flood-opacity="0" result="BackgroundImageFix"/>
<feBlend mode="normal" in="SourceGraphic" in2="BackgroundImageFix" result="shape"/>
<feGaussianBlur stdDeviation="250" result="effect1_foregroundBlur_385_791"/>
</filter>
<filter id="filter15_f_385_791" x="-320" y="5458" width="1650" height="1520" filterUnits="userSpaceOnUse" color-interpolation-filters="sRGB">
<feFlood flood-opacity="0" result="BackgroundImageFix"/>
<feBlend mode="normal" in="SourceGraphic" in2="BackgroundImageFix" result="shape"/>
<feGaussianBlur stdDeviation="250" result="effect1_foregroundBlur_385_791"/>
</filter>
<filter id="filter16_f_385_791" x="90" y="6261" width="1650" height="1520" filterUnits="userSpaceOnUse" color-interpolation-filters="sRGB">
<feFlood flood-opacity="0" result="BackgroundImageFix"/>
<feBlend mode="normal" in="SourceGraphic" in2="BackgroundImageFix" result="shape"/>
<feGaussianBlur stdDeviation="250" result="effect1_foregroundBlur_385_791"/>
</filter>
<filter id="filter17_f_385_791" x="552" y="6845" width="1650" height="1520" filterUnits="userSpaceOnUse" color-interpolation-filters="sRGB">
<feFlood flood-opacity="0" result="BackgroundImageFix"/>
<feBlend mode="normal" in="SourceGraphic" in2="BackgroundImageFix" result="shape"/>
<feGaussianBlur stdDeviation="250" result="effect1_foregroundBlur_385_791"/>
</filter>
<filter id="filter18_f_385_791" x="-385" y="7082" width="1650" height="1520" filterUnits="userSpaceOnUse" color-interpolation-filters="sRGB">
<feFlood flood-opacity="0" result="BackgroundImageFix"/>
<feBlend mode="normal" in="SourceGraphic" in2="BackgroundImageFix" result="shape"/>
<feGaussianBlur stdDeviation="250" result="effect1_foregroundBlur_385_791"/>
</filter>
<filter id="filter19_f_385_791" x="165" y="7861" width="1650" height="1520" filterUnits="userSpaceOnUse" color-interpolation-filters="sRGB">
<feFlood flood-opacity="0" result="BackgroundImageFix"/>
<feBlend mode="normal" in="SourceGraphic" in2="BackgroundImageFix" result="shape"/>
<feGaussianBlur stdDeviation="250" result="effect1_foregroundBlur_385_791"/>
</filter>
<filter id="filter20_f_385_791" x="989" y="8242" width="1650" height="1520" filterUnits="userSpaceOnUse" color-interpolation-filters="sRGB">
<feFlood flood-opacity="0" result="BackgroundImageFix"/>
<feBlend mode="normal" in="SourceGraphic" in2="BackgroundImageFix" result="shape"/>
<feGaussianBlur stdDeviation="250" result="effect1_foregroundBlur_385_791"/>
</filter>
<filter id="filter21_f_385_791" x="-172" y="810" width="2456" height="2456" filterUnits="userSpaceOnUse" color-interpolation-filters="sRGB">
<feFlood flood-opacity="0" result="BackgroundImageFix"/>
<feBlend mode="normal" in="SourceGraphic" in2="BackgroundImageFix" result="shape"/>
<feGaussianBlur stdDeviation="500" result="effect1_foregroundBlur_385_791"/>
</filter>
<filter id="filter22_f_385_791" x="407" y="1059" width="1650" height="1520" filterUnits="userSpaceOnUse" color-interpolation-filters="sRGB">
<feFlood flood-opacity="0" result="BackgroundImageFix"/>
<feBlend mode="normal" in="SourceGraphic" in2="BackgroundImageFix" result="shape"/>
<feGaussianBlur stdDeviation="250" result="effect1_foregroundBlur_385_791"/>
</filter>
<filter id="filter23_f_385_791" x="770" y="5620" width="1650" height="1520" filterUnits="userSpaceOnUse" color-interpolation-filters="sRGB">
<feFlood flood-opacity="0" result="BackgroundImageFix"/>
<feBlend mode="normal" in="SourceGraphic" in2="BackgroundImageFix" result="shape"/>
<feGaussianBlur stdDeviation="250" result="effect1_foregroundBlur_385_791"/>
</filter>
</defs>
</svg>
