<svg width="75" height="57" viewBox="0 0 75 57" fill="none" xmlns="http://www.w3.org/2000/svg">
<path opacity="0.5" d="M20.6157 0.0146484H34.7498C36.2517 0.0146484 36.8313 0.582971 36.8313 2.09533C36.8313 7.81898 36.9533 13.545 36.8055 19.2639C36.3385 37.5002 23.5913 52.3431 6.65766 55.6722C6.0264 55.7959 5.39515 55.9267 4.75685 55.9956C4.40447 56.0549 4.04273 55.9866 3.73507 55.8027C3.42742 55.6188 3.19347 55.331 3.07427 54.9898C2.0957 52.6119 1.11245 50.2339 0.178467 47.8346C-0.243936 46.7431 0.0869432 46.0963 1.2462 45.4733C7.88497 41.9065 11.757 36.247 13.449 28.9373C13.6836 27.9504 13.5945 27.8506 12.6018 27.8458C10.5837 27.8458 8.56317 27.8458 6.54502 27.8458C4.83663 27.8458 4.28281 27.2775 4.28046 25.544C4.28046 17.7761 4.28046 10.0082 4.28046 2.24038C4.28046 0.540165 4.80847 0.0146484 6.48635 0.0146484H20.6157ZM20.5758 3.14874C16.6835 3.14874 12.7895 3.14874 8.89405 3.14874C7.23025 3.14874 7.36401 2.98229 7.36166 4.65873C7.36166 6.37717 7.36166 8.0972 7.36166 9.81881C7.36166 14.4177 7.37574 19.0166 7.34758 23.6107C7.34758 24.3764 7.56348 24.6879 8.34492 24.6451C9.30706 24.5928 10.2762 24.6309 11.2431 24.6451C12.5596 24.6451 13.8784 24.6095 15.1925 24.6761C16.5654 24.7474 17.1286 25.4798 16.9737 26.8495C16.9127 27.3797 16.8329 27.9076 16.739 28.4284C15.1456 36.5989 11.1375 43.1192 4.02468 47.5112C3.6586 47.7371 3.53892 47.9535 3.71492 48.3696C4.24058 49.6228 4.75449 50.8831 5.2473 52.1529C5.43738 52.6285 5.7049 52.7284 6.20005 52.6095C7.37339 52.3336 8.54674 52.0626 9.68019 51.6964C23.122 47.3852 33.7079 34.6039 33.7595 17.9608C33.7736 13.3928 33.7431 8.82484 33.7783 4.25686C33.7783 3.41507 33.5647 3.12972 32.7011 3.13923C28.6555 3.17014 24.6145 3.14874 20.5758 3.14874Z" fill="#7F898C"/>
<path opacity="0.5" d="M58.7537 0.0142669C63.4971 0.0142669 68.2398 0.0142669 72.9816 0.0142669C74.5023 0.0142669 74.974 0.489853 74.974 2.03075C74.974 7.78531 75.035 13.5399 74.9599 19.2944C74.8426 28.4684 71.705 36.5225 65.7938 43.4232C60.1617 49.9839 53.0747 54.0453 44.6595 55.7384C41.9515 56.2853 41.7567 56.1926 40.7241 53.6411C40.0037 51.8577 39.2692 50.0742 38.5511 48.2955C37.9269 46.738 38.124 46.2172 39.5696 45.4301C46.1825 41.8228 50.0217 36.1396 51.7043 28.8228C51.885 28.0357 51.6878 27.8264 50.9275 27.8383C48.8789 27.8716 46.8279 27.8549 44.7792 27.8383C43.045 27.8383 42.5405 27.308 42.5405 25.546C42.5405 17.7432 42.5405 9.94129 42.5405 2.14013C42.5405 0.489851 43.0098 0 44.6149 0L58.7537 0.0142669ZM58.8429 3.14836C54.7479 3.14836 50.6506 3.14836 46.5533 3.14836C45.9807 3.14836 45.6146 3.21494 45.6146 3.94972C45.6334 10.5619 45.6334 17.1741 45.6146 23.7863C45.6146 24.4688 45.8915 24.659 46.5087 24.6495C47.973 24.6257 49.435 24.6281 50.8994 24.6495C51.892 24.6614 52.8917 24.5425 53.875 24.7375C54.7995 24.923 55.283 25.5888 55.1867 26.5328C54.81 30.2281 53.7217 33.8127 51.9835 37.0836C49.7819 41.3698 46.4517 44.9543 42.3621 47.4395C41.9209 47.7106 41.7356 47.9626 41.9749 48.5048C42.4888 49.6676 42.9511 50.8542 43.4087 52.0408C43.6129 52.5758 43.8781 52.7161 44.4765 52.5901C52.1666 50.9469 58.5847 47.109 63.6559 41.05C68.95 34.7248 71.7778 27.396 71.8693 19.0685C71.9303 14.1177 71.8693 9.1645 71.9022 4.21129C71.9022 3.41231 71.6886 3.13172 70.8649 3.13885C66.8638 3.16976 62.8557 3.14836 58.8452 3.14836H58.8429Z" fill="#7F898C"/>
</svg>
